<?xml version="1.0" encoding="UTF-8" standalone="no"?><svg xmlns="http://www.w3.org/2000/svg" xmlns:xlink="http://www.w3.org/1999/xlink" fill="#ffffff" height="480" preserveAspectRatio="xMidYMid meet" version="1" viewBox="48.0 16.0 416.0 480.0" width="416" zoomAndPan="magnify"><g data-name="Glyph" id="change1_1"><path d="M456,16H88a8,8,0,0,0-8,8V48H56a8,8,0,0,0-8,8V488a8,8,0,0,0,8,8H424a8,8,0,0,0,8-8V464h24a8,8,0,0,0,8-8V24A8,8,0,0,0,456,16ZM88,88a8,8,0,0,1,16,0v56a16,16,0,0,0,32,0V88a8,8,0,0,1,16,0v56a32,32,0,0,1-64,0ZM416,480H64V208H416ZM229.12,161.84a8.07,8.07,0,0,1,1,11.28A7.92,7.92,0,0,1,224,176a8.2,8.2,0,0,1-5.12-1.84l-34.88-29V168a8,8,0,0,1-16,0V88a8,8,0,0,1,8-8h28a28,28,0,0,1,0,56h-5.92ZM304,160a8,8,0,0,1,0,16H256a8,8,0,0,1-8-8V88a8,8,0,0,1,16,0v72Zm48-40V75.28L404.72,128H360A8,8,0,0,1,352,120Zm96,328H432V136a8.26,8.26,0,0,0-2.32-5.68l-80-80A8.26,8.26,0,0,0,344,48H96V32H448Z" fill="inherit"/><path d="M240,232A112,112,0,1,0,352,344,112.12,112.12,0,0,0,240,232Zm15.84,176H251c-13,0-23.44,10.8-23.44,24a24.31,24.31,0,0,0,1.12,7.28A96.1,96.1,0,0,1,144,344a94.42,94.42,0,0,1,5.6-32h84.08a24,24,0,0,0,0-48H222a7.94,7.94,0,0,1-7.84-8,7.85,7.85,0,0,1,1.84-4.88A98.65,98.65,0,0,1,240,248a96.08,96.08,0,0,1,96,96H211.44C198.56,344,188,354.8,188,368s10.56,24,23.44,24h44.4a8,8,0,0,1,0,16Zm57.36-2a8,8,0,0,1-2.72-6c0-4.4,3.36-8,7.44-8H323A95.65,95.65,0,0,1,313.2,406Z" fill="inherit"/><path d="M216,108a12,12,0,0,1-12,12H184V96h20A12,12,0,0,1,216,108Z" fill="inherit"/></g></svg>