<?xml version="1.0" encoding="UTF-8"?><svg xmlns="http://www.w3.org/2000/svg" xmlns:xlink="http://www.w3.org/1999/xlink" height="134.2" preserveAspectRatio="xMidYMid meet" version="1.0" viewBox="19.1 238.8 862.0 134.2" width="862.0" zoomAndPan="magnify"><g><g id="change1_1"><path d="M843.5,373H56.7c-20.8,0-37.6-16.8-37.6-37.6v-59c0-20.8,16.8-37.6,37.6-37.6h786.8 c20.8,0,37.6,16.8,37.6,37.6v59C881,356.1,864.2,373,843.5,373z" fill="#fff"/></g><g id="change2_2"><path d="M169,373H56.7c-20.8,0-37.6-16.8-37.6-37.6v-59c0-20.8,16.8-37.6,37.6-37.6H169V373z" fill="#efd037"/></g><g id="change1_2"><path d="M129.3,338.6l-17.2-21.4c10-11.1,10.8-28.2,1.1-40.3c-10.7-13.4-30.3-15.6-43.8-4.8 c-13.4,10.7-15.6,30.3-4.8,43.8c9.8,12.2,26.8,15.1,39.9,7.5l17.1,21.4c1.7,2.1,4.7,2.4,6.8,0.8 C130.6,343.7,130.9,340.7,129.3,338.6z M71,310.7c-7.9-9.9-6.3-24.3,3.6-32.3c9.9-7.9,24.3-6.3,32.3,3.6s6.3,24.3-3.6,32.3 S78.9,320.6,71,310.7z" fill="#fff"/></g><g><g id="change2_1"><circle cx="844" cy="289.2" fill="#efd037" r="7"/></g><g id="change2_3"><circle cx="844" cy="310.9" fill="#efd037" r="7"/></g><g id="change2_4"><circle cx="844" cy="332.6" fill="#efd037" r="7"/></g></g></g></svg>