<?xml version="1.0" encoding="UTF-8"?><svg xmlns="http://www.w3.org/2000/svg" xmlns:xlink="http://www.w3.org/1999/xlink" height="271.6" preserveAspectRatio="xMidYMid meet" version="1.0" viewBox="0.0 -0.0 354.5 271.6" width="354.5" zoomAndPan="magnify"><g><g><path d="M291.72,160.81l12.61-12.61-7.71-7.7a.4.4,0,0,1,.07-.13l10.64,0v-17.8H296.61c0-.1-.09-.18-.12-.25l7.43-7.42-12.61-12.61-7.42,7.43a3.36,3.36,0,0,0-.43-.2V99.27l-17.82,0v10.29c-.2.07-.36.17-.54.25L258,102.7l-12.61,12.6,7.28,7.28a3.38,3.38,0,0,1-.2.56H242.38V141h10.49a3,3,0,0,1,.18.41l-7.24,7.25,12.6,12.61,7.59-7.59.25.08,0,10.51h17.84V153.32c.05,0,.08,0,.11,0Zm-27.93-18.43a15.33,15.33,0,1,1,21.7,0A15.33,15.33,0,0,1,263.79,142.38Z" fill="#4590b0" transform="translate(-35.32 -68.32)"/></g><g><path d="M293.75,103.06h9.54V97.23l.07,0,4,4,6.73-6.74-4.05-4a1.21,1.21,0,0,0,.05-.14h5.61V80.77h-5.61a2.18,2.18,0,0,0-.09-.23l3.87-3.87-6.74-6.73-3.9,3.89a2.12,2.12,0,0,0-.29-.11v-5.4h-9.54v5.51c-.1,0-.18.1-.28.14l-3.81-3.81L282.6,76.9l4,4a2,2,0,0,1-.08.22H281v9.54h5.74a.66.66,0,0,0,.06.12l-4,4,6.74,6.74,4.13-4.13.06,0Zm-3.59-17.53a8.2,8.2,0,1,1,8.21,8.21A8.2,8.2,0,0,1,290.16,85.53Z" fill="#4590b0" transform="translate(-35.32 -68.32)"/></g><g><path d="M160.93 220.64H204.70000000000002V269.78999999999996H160.93z" fill="#54c4d0"/></g><g><path d="M160.93 220.64H204.70000000000002V237.71999999999997H160.93z" fill="#45a6af"/></g><g><path d="M150.05,257.88h65.51a8.29,8.29,0,0,1,8.29,8.29v5.44a0,0,0,0,1,0,0h-82.1a0,0,0,0,1,0,0v-5.44A8.29,8.29,0,0,1,150.05,257.88Z" fill="#45a6af"/></g><g><rect fill="#45a6b0" height="158.6" rx="8.01" width="242.94" x="61.34" y="67.7"/></g><g><rect fill="#fff" height="230.08" rx="3.23" transform="rotate(90 234.635 163.505)" width="145.74" x="145.26" y="100.29"/></g><g><rect fill="#45a6af" height="71.79" rx="2.2" width="113.26" x="8.67" y="44.2"/></g><g><rect fill="#fff" height="110.14" rx="1.74" transform="rotate(90 117.12 98.6)" width="64.13" x="68.56" y="95.35"/></g><g><circle cx="118.2" cy="47.12" fill="#fff" r="1.43"/></g><g><circle cx="113.46" cy="47.12" fill="#fff" r="1.43"/></g><g><path d="M145.48,115.44a1.43,1.43,0,1,1-1.43-1.43A1.44,1.44,0,0,1,145.48,115.44Z" fill="#fff" transform="translate(-35.32 -68.32)"/></g><g><path d="M61.09,129.84A5.8,5.8,0,1,1,55.3,124,5.8,5.8,0,0,1,61.09,129.84Z" fill="#4590af" transform="translate(-35.32 -68.32)"/></g><g><path d="M28.43 55.76H114.9V58.5H28.43z" fill="#d5d4eb"/></g><g><path d="M28.43 60.14H87.28V62.88H28.43z" fill="#d5d4eb"/></g><g><path d="M28.43 64.8H59.03V67.53999999999999H28.43z" fill="#d5d4eb"/></g><g><path d="M61.09,148.3a5.8,5.8,0,1,1-5.79-5.79A5.79,5.79,0,0,1,61.09,148.3Z" fill="#4590af" transform="translate(-35.32 -68.32)"/></g><g><path d="M28.43 74.23H114.9V76.97H28.43z" fill="#d5d4eb"/></g><g><path d="M28.43 78.61H87.28V81.35H28.43z" fill="#d5d4eb"/></g><g><path d="M28.43 83.26H59.03V86H28.43z" fill="#d5d4eb"/></g><g><path d="M61.09,166.77A5.8,5.8,0,1,1,55.3,161,5.8,5.8,0,0,1,61.09,166.77Z" fill="#4590af" transform="translate(-35.32 -68.32)"/></g><g><path d="M28.43 92.69H114.9V95.42999999999999H28.43z" fill="#d5d4eb"/></g><g><path d="M28.43 97.08H87.28V99.82H28.43z" fill="#d5d4eb"/></g><g><path d="M28.43 101.73H59.03V104.47H28.43z" fill="#d5d4eb"/></g><path d="M2.44 38.04H127.3V122.84H2.44z" fill="none" stroke="#4590b1" stroke-miterlimit="10"/><g><path d="M0 35.59H4.89V40.480000000000004H0z" fill="#45a6af"/></g><g><path d="M0 120.39H4.89V125.28H0z" fill="#45a6af"/></g><g><path d="M124.86 35.59H129.75V40.480000000000004H124.86z" fill="#45a6af"/></g><g><path d="M124.86 120.39H129.75V125.28H124.86z" fill="#38356e"/></g><g><rect fill="#45a6af" height="60.67" rx="2.2" width="87.35" x="260.6" y="185.31"/></g><g><rect fill="#fff" height="84.71" rx="1.4" transform="rotate(90 356.105 233.845)" width="54.2" x="312.5" y="243.31"/></g><g><path d="M381.34,256.1a1.21,1.21,0,1,1-1.21-1.21A1.22,1.22,0,0,1,381.34,256.1Z" fill="#fff" transform="translate(-35.32 -68.32)"/></g><g><path d="M377.34,256.1a1.22,1.22,0,1,1-1.21-1.21A1.22,1.22,0,0,1,377.34,256.1Z" fill="#fff" transform="translate(-35.32 -68.32)"/></g><g><path d="M373.33,256.1a1.21,1.21,0,1,1-1.21-1.21A1.22,1.22,0,0,1,373.33,256.1Z" fill="#fff" transform="translate(-35.32 -68.32)"/></g><g><circle cx="339.6" cy="285.67" fill="#4590b0" r="12.58" transform="rotate(-75.76 278.035 274.208)"/></g><g><path d="M311.64 217.34L305.81 220.71 299.99 224.07 299.99 217.34 299.99 210.62 305.81 213.98 311.64 217.34z" fill="#fff"/></g><g><path d="M261.92 238.76H346.63V240.42999999999998H261.92z" fill="#d5d4eb"/></g><g><path d="M261.92 238.76H281V240.42999999999998H261.92z" fill="#4590b0"/></g><g><circle cx="281.01" cy="239.6" fill="#4590b0" r="1.28"/></g><path d="M255.93 181.28H352.63V251.1H255.93z" fill="none" stroke="#4590b1" stroke-miterlimit="10"/><g><path d="M254.04 179.39H257.83V183.17999999999998H254.04z" fill="#38356e"/></g><g><path d="M254.04 249.21H257.83V253H254.04z" fill="#45a6af"/></g><g><path d="M350.74 179.39H354.53000000000003V183.17999999999998H350.74z" fill="#45a6af"/></g><g><path d="M350.74 249.21H354.53000000000003V253H350.74z" fill="#45a6af"/></g><g><path d="M368.93,158.4H327.58a1.46,1.46,0,0,1-1.47-1.46V127.39a1.47,1.47,0,0,1,1.47-1.46h16.81a1.48,1.48,0,0,1,1,.43l2.73,2.73a1.46,1.46,0,0,0,1,.43h19.74a1.46,1.46,0,0,1,1.46,1.46v26A1.46,1.46,0,0,1,368.93,158.4Z" fill="#45a6af" transform="translate(-35.32 -68.32)"/></g><g><path d="M329.86 40.29L329.86 77.47 294.75 77.47 294.75 34.74 324.31 34.74 329.86 40.29z" fill="#d5d4eb"/></g><g><path d="M324.31 40.29L324.31 34.74 329.86 40.29 324.31 40.29z" fill="#cbcae0"/></g><g><path d="M332.04 42.23L332.04 79.42 296.93 79.42 296.93 36.68 326.49 36.68 332.04 42.23z" fill="#e7e6ff"/></g><g><path d="M370.49,158.4H329.13a1.46,1.46,0,0,1-1.46-1.46V131.59a1.46,1.46,0,0,1,1.46-1.46h16.81a1.46,1.46,0,0,1,1,.43l2.73,2.73a1.46,1.46,0,0,0,1,.43h19.75a1.46,1.46,0,0,1,1.46,1.46v21.76A1.46,1.46,0,0,1,370.49,158.4Z" fill="#54c4d0" transform="translate(-35.32 -68.32)"/></g><g><path d="M326.49 42.23L326.49 36.68 332.04 42.23 326.49 42.23z" fill="#cbcae0"/></g><g><path d="M298.43 39.12H325.01V40.559999999999995H298.43z" fill="#cbcae0"/></g><g><path d="M298.52 44.57H330.45V45.48H298.52z" fill="#cbcae0"/></g><g><path d="M298.52 47.14H330.45V48.05H298.52z" fill="#cbcae0"/></g><g><path d="M298.52 49.72H324.76V50.629999999999995H298.52z" fill="#cbcae0"/></g><g><path d="M298.52 52.3H324.76V53.209999999999994H298.52z" fill="#cbcae0"/></g><g><path d="M298.52 54.88H316.27V55.79H298.52z" fill="#cbcae0"/></g><g><path d="M298.52 57.46H316.27V58.37H298.52z" fill="#cbcae0"/></g><g><path d="M346.39,242.93a23.91,23.91,0,0,0,2.21-5.7V225.05a2.54,2.54,0,0,1,2.54-2.53h32a2.53,2.53,0,0,1,2.53,2.53V238a2.54,2.54,0,0,1-2.53,2.54H352.84a11.09,11.09,0,0,1-5.74,3.37A.66.66,0,0,1,346.39,242.93Z" fill="#4590b0" transform="translate(-35.32 -68.32)"/></g><g><path d="M373.66,226.87a3,3,0,0,1,3.87,1.22,2.94,2.94,0,0,1,3.87-1.22,3.9,3.9,0,0,1,1.93,3.78,6,6,0,0,1-2.09,3.86,13.24,13.24,0,0,1-3.71,2.2,13.1,13.1,0,0,1-3.71-2.2,6,6,0,0,1-2.09-3.86A3.88,3.88,0,0,1,373.66,226.87Z" fill="#fff" transform="translate(-35.32 -68.32)"/></g><g><path d="M355.19,228v7.44h-2.11v-5.81H351.7V228Z" fill="#fff" transform="translate(-35.32 -68.32)"/></g><g><path d="M357.89,235.08a3,3,0,0,1-1.16-1.33,5.36,5.36,0,0,1,0-4.16,3,3,0,0,1,1.16-1.33,3.14,3.14,0,0,1,1.7-.46,3.06,3.06,0,0,1,2.86,1.79,5.36,5.36,0,0,1,0,4.16,3.24,3.24,0,0,1-4.56,1.33Zm2.55-1.78a4.44,4.44,0,0,0,0-3.26,1,1,0,0,0-.85-.52,1,1,0,0,0-.86.52,4.44,4.44,0,0,0,0,3.26,1,1,0,0,0,.86.52A1,1,0,0,0,360.44,233.3Z" fill="#fff" transform="translate(-35.32 -68.32)"/></g><g><path d="M365.17,235.08a3,3,0,0,1-1.16-1.33,5.36,5.36,0,0,1,0-4.16,3,3,0,0,1,1.16-1.33,3.14,3.14,0,0,1,1.7-.46,3.11,3.11,0,0,1,1.69.46,3.05,3.05,0,0,1,1.17,1.33,5.36,5.36,0,0,1,0,4.16,3.05,3.05,0,0,1-1.17,1.33,3.11,3.11,0,0,1-1.69.46A3.14,3.14,0,0,1,365.17,235.08Zm2.55-1.78a4.44,4.44,0,0,0,0-3.26,1,1,0,0,0-.85-.52.94.94,0,0,0-.85.52,4.31,4.31,0,0,0,0,3.26.94.94,0,0,0,.85.52A1,1,0,0,0,367.72,233.3Z" fill="#fff" transform="translate(-35.32 -68.32)"/></g><g><rect fill="#45a6af" height="124.87" rx="4.57" width="213.83" x="75.89" y="84.56"/></g><g><rect fill="#fff" height="207.93" rx="2.76" transform="rotate(90 234.63 167.29)" width="110.42" x="162.92" y="115.15"/></g><g><path d="M320.72,158.4a2.71,2.71,0,1,1-2.71-2.71A2.71,2.71,0,0,1,320.72,158.4Z" fill="#fff" transform="translate(-35.32 -68.32)"/></g><g><path d="M311.77,158.4a2.71,2.71,0,1,1-2.7-2.71A2.7,2.7,0,0,1,311.77,158.4Z" fill="#fff" transform="translate(-35.32 -68.32)"/></g><g><path d="M302.83,158.4a2.71,2.71,0,1,1-2.71-2.71A2.71,2.71,0,0,1,302.83,158.4Z" fill="#fff" transform="translate(-35.32 -68.32)"/></g><path d="M163.23 156.97L163.23 158.47 161.73 158.47" fill="none" stroke="#38356e" stroke-linejoin="round" stroke-width=".5"/><path d="M158.69 158.47L87.23 158.47" fill="none" stroke="#38356e" stroke-dasharray="3.04 3.04" stroke-linejoin="round" stroke-width=".5"/><path d="M85.71 158.47L84.21 158.47 84.21 156.97" fill="none" stroke="#38356e" stroke-linejoin="round" stroke-width=".5"/><path d="M84.21 153.81L84.21 104.82" fill="none" stroke="#38356e" stroke-dasharray="3.16 3.16" stroke-linejoin="round" stroke-width=".5"/><path d="M84.21 103.24L84.21 101.74 85.71 101.74" fill="none" stroke="#38356e" stroke-linejoin="round" stroke-width=".5"/><path d="M88.75 101.74L160.21 101.74" fill="none" stroke="#38356e" stroke-dasharray="3.04 3.04" stroke-linejoin="round" stroke-width=".5"/><path d="M161.73 101.74L163.23 101.74 163.23 103.24" fill="none" stroke="#38356e" stroke-linejoin="round" stroke-width=".5"/><path d="M163.23 106.4L163.23 155.39" fill="none" stroke="#38356e" stroke-dasharray="3.16 3.16" stroke-linejoin="round" stroke-width=".5"/><g><path d="M93.45 110.88H172.47V167.60999999999999H93.45z" fill="#45a6af"/></g><path d="M167.35 163.06L98.4 163.06 120.13 122.08 136.46 150.24 147.53 138.55 167.35 163.06z" fill="none" stroke="#fff" stroke-linecap="round" stroke-linejoin="round" stroke-width="2"/><circle cx="139.7" cy="124.33" fill="none" r="6.75" stroke="#fff" stroke-linecap="round" stroke-linejoin="round" stroke-width="2"/><g><path d="M181.55 102.62H279.98V108.67H181.55z" fill="#d5d4eb"/></g><g><path d="M181.55 113.76H209.84V116.79H181.55z" fill="#d5d4eb"/></g><g><path d="M213.7 113.76H225.17999999999998V116.79H213.7z" fill="#d5d4eb"/></g><g><path d="M229.58 113.76H259.7V116.79H229.58z" fill="#d5d4eb"/></g><g><path d="M262.09 113.76H279.97999999999996V116.79H262.09z" fill="#d5d4eb"/></g><g><path d="M181.55 121.31H218.84V124.34H181.55z" fill="#d5d4eb"/></g><g><path d="M222.97 121.31H237.48V124.34H222.97z" fill="#d5d4eb"/></g><g><path d="M240.79 121.31H255.29999999999998V124.34H240.79z" fill="#d5d4eb"/></g><g><path d="M257.54 121.31H275.96000000000004V124.34H257.54z" fill="#d5d4eb"/></g><g><path d="M181.55 128.85H191.93V131.88H181.55z" fill="#d5d4eb"/></g><g><path d="M230.23 128.85H248.87V131.88H230.23z" fill="#d5d4eb"/></g><g><path d="M194.32 128.85H227.10999999999999V131.88H194.32z" fill="#d5d4eb"/></g><g><path d="M181.55 136.39H205.06V139.42H181.55z" fill="#d5d4eb"/></g><g><path d="M209.1 136.39H217V139.42H209.1z" fill="#d5d4eb"/></g><g><path d="M220.68 136.39H236.20000000000002V139.42H220.68z" fill="#d5d4eb"/></g><g><path d="M181.55 143.93H190.55V146.96H181.55z" fill="#d5d4eb"/></g><g><path d="M193.95 143.93H213.7V146.96H193.95z" fill="#d5d4eb"/></g><g><path d="M84.21 173.63H172.47V199.88H84.21z" fill="#d5d4eb"/></g><g><path d="M86.55 175.41H103.3V190.99H86.55z" fill="#fff"/></g><g><path d="M86.55 193.31H103.3V197.94H86.55z" fill="#fff"/></g><g><path d="M143.22 250.68H159.97V266.26H143.22z" fill="#fff" transform="rotate(180 133.935 224.31)"/></g><g><path d="M143.22 243.74H159.97V248.37H143.22z" fill="#fff" transform="rotate(180 133.935 211.89)"/></g><g><path d="M130.9 175.41H147.65V190.99H130.9z" fill="#fff"/></g><g><path d="M130.9 193.31H147.65V197.94H130.9z" fill="#fff"/></g><g><path d="M187.56 250.68H204.31V266.26H187.56z" fill="#fff" transform="rotate(180 178.275 224.31)"/></g><g><path d="M187.56 243.74H204.31V248.37H187.56z" fill="#fff" transform="rotate(180 178.275 211.89)"/></g><g><path d="M318.27,226.12H218.92v-3.36A2.07,2.07,0,0,1,221,220.7h95.22a2.06,2.06,0,0,1,2.06,2.06Z" fill="#46a6ae" transform="translate(-35.32 -68.32)"/></g><g><path d="M317.27,225.08v41.14a1.71,1.71,0,0,1-1.71,1.71H221.64a1.71,1.71,0,0,1-1.72-1.71V225.08h97.35m1-1H218.92v42.14a2.71,2.71,0,0,0,2.72,2.71h93.92a2.71,2.71,0,0,0,2.71-2.71V224.08Z" fill="#46a6ae" transform="translate(-35.32 -68.32)"/></g><g><path d="M187.06 161.15H199.56V197.21H187.06z" fill="#d5d4eb"/></g><g><path d="M218.21 161.15H278.61V197.21H218.21z" fill="#d5d4eb"/></g><g><path d="M221.43 163.06H275.65V166.74H221.43z" fill="#fff"/></g><g><path d="M221.43 168.95H275.65V170.79H221.43z" fill="#fff"/></g><g><path d="M202.18 168.95H214.68V173.25H202.18z" fill="#d5d4eb"/></g><g><path d="M221.43 172.45H233.09V194.51H221.43z" fill="#fff"/></g><g><path d="M250.06 172.45H261.72V194.51H250.06z" fill="#fff"/></g><g><path d="M283.62,263.33H271V240.27h12.66Zm-11.66-1h10.66V241.27H272Z" fill="#fff" transform="translate(-35.32 -68.32)"/></g><g><path d="M311.47,263.33H298.81V240.27h12.66Zm-11.66-1h10.66V241.27H299.81Z" fill="#fff" transform="translate(-35.32 -68.32)"/></g><g><path d="M202.18 176.75H214.68V181.05H202.18z" fill="#d5d4eb"/></g><g><path d="M202.18 184.55H214.68V188.85000000000002H202.18z" fill="#d5d4eb"/></g><g><path d="M202.18 192.35H214.68V196.65H202.18z" fill="#d5d4eb"/></g><g><path d="M221.81,108.29H185.72a8.67,8.67,0,0,0-8.67,8.67h0a8.68,8.68,0,0,0,1,4l-2.82,5.14a1.54,1.54,0,0,0,2,2.16l6.74-2.85a8.86,8.86,0,0,0,1.8.19h36.09a8.67,8.67,0,0,0,8.67-8.67h0A8.67,8.67,0,0,0,221.81,108.29Z" fill="#4590b0" transform="translate(-35.32 -68.32)"/></g><g><path d="M190.39,117a3.07,3.07,0,1,1-3.07-3.07A3.07,3.07,0,0,1,190.39,117Z" fill="#fff" transform="translate(-35.32 -68.32)"/></g><g><path d="M201.59,117a3.07,3.07,0,1,1-3.07-3.07A3.08,3.08,0,0,1,201.59,117Z" fill="#fff" transform="translate(-35.32 -68.32)"/></g><g><path d="M212.78,117a3.07,3.07,0,1,1-3.07-3.07A3.07,3.07,0,0,1,212.78,117Z" fill="#fff" transform="translate(-35.32 -68.32)"/></g><g><path d="M224,117a3.07,3.07,0,1,1-3.07-3.07A3.08,3.08,0,0,1,224,117Z" fill="#fff" transform="translate(-35.32 -68.32)"/></g><g><path d="M355.85,196.16H319.76a8.67,8.67,0,0,0-8.67,8.67h0a8.53,8.53,0,0,0,1,4L309.26,214a1.55,1.55,0,0,0,2,2.17l6.73-2.86a8.36,8.36,0,0,0,1.81.19h36.09a8.67,8.67,0,0,0,8.67-8.67h0A8.67,8.67,0,0,0,355.85,196.16Z" fill="#4590b0" transform="translate(-35.32 -68.32)"/></g><g><path d="M324.43,204.89a3.07,3.07,0,1,1-3.07-3.07A3.07,3.07,0,0,1,324.43,204.89Z" fill="#fff" transform="translate(-35.32 -68.32)"/></g><g><path d="M335.62,204.89a3.07,3.07,0,1,1-3.06-3.07A3.07,3.07,0,0,1,335.62,204.89Z" fill="#fff" transform="translate(-35.32 -68.32)"/></g><g><path d="M346.82,204.89a3.07,3.07,0,1,1-3.07-3.07A3.07,3.07,0,0,1,346.82,204.89Z" fill="#fff" transform="translate(-35.32 -68.32)"/></g><g><path d="M358,204.89a3.07,3.07,0,1,1-3.06-3.07A3.07,3.07,0,0,1,358,204.89Z" fill="#fff" transform="translate(-35.32 -68.32)"/></g><g><path d="M135.85,265.43l-1.45,1.22a39.94,39.94,0,0,1-16.72,8.41l-2.08.49a22.22,22.22,0,1,0,4.5,13.4c0-.35,0-.69,0-1l2-1.41a40,40,0,0,0,15.11-20.16A.85.85,0,0,0,135.85,265.43Z" fill="#4590b0" transform="translate(-35.32 -68.32)"/></g><g><path d="M99.5,275.29l3,6.1a1.85,1.85,0,0,0,1.36,1l6.73,1a1.81,1.81,0,0,1,1,3.08l-4.87,4.75a1.82,1.82,0,0,0-.52,1.6l1.15,6.7a1.8,1.8,0,0,1-2.62,1.9l-6-3.16a1.81,1.81,0,0,0-1.69,0l-6,3.16a1.8,1.8,0,0,1-2.62-1.9l1.15-6.7a1.82,1.82,0,0,0-.52-1.6l-4.87-4.75a1.81,1.81,0,0,1,1-3.08l6.73-1a1.84,1.84,0,0,0,1.36-1l3-6.1A1.81,1.81,0,0,1,99.5,275.29Z" fill="#fff" transform="translate(-35.32 -68.32)"/></g><g><path d="M13.31 139.46H71.39V154.46H13.31z" fill="#45a6af"/></g><g><path d="M69.07,210.18l-3.62,10H62.67L60.42,214l-2.32,6.19H55.32l-3.6-10h2.73l2.36,6.75,2.44-6.75H61.7l2.38,6.75,2.43-6.75Z" fill="#fff" transform="translate(-35.32 -68.32)"/></g><g><path d="M86.2,210.18l-3.61,10H79.8L77.56,214l-2.32,6.19H72.46l-3.6-10h2.73l2.35,6.75,2.45-6.75h2.45l2.37,6.75,2.43-6.75Z" fill="#fff" transform="translate(-35.32 -68.32)"/></g><g><path d="M103.34,210.18l-3.61,10H96.94L94.7,214l-2.32,6.19H89.6l-3.6-10h2.73l2.35,6.75,2.45-6.75H96l2.37,6.75,2.43-6.75Z" fill="#fff" transform="translate(-35.32 -68.32)"/></g><path d="M10.23 139.46L16.38 139.46" fill="none" stroke="#fff" stroke-linecap="round" stroke-linejoin="round" stroke-width="2"/><path d="M10.23 154.46L16.38 154.46" fill="none" stroke="#fff" stroke-linecap="round" stroke-linejoin="round" stroke-width="2"/><path d="M13.31 139.46L13.31 154.46" fill="none" stroke="#fff" stroke-linecap="round" stroke-linejoin="round" stroke-width="2"/><g><path d="M174.9 140.06L169.81 138.7 164.72 137.33 166.09 142.42 167.45 147.51 170.24 144.72 176.05 150.54 177.92 148.66 172.11 142.85 174.9 140.06z" fill="#222042"/></g></g></svg>