<?xml version="1.0" encoding="UTF-8"?><svg xmlns="http://www.w3.org/2000/svg" xmlns:xlink="http://www.w3.org/1999/xlink" height="191.4" preserveAspectRatio="xMidYMid meet" version="1.0" viewBox="-1.3 -3.4 189.5 191.4" width="189.5" zoomAndPan="magnify"><defs><linearGradient gradientUnits="userSpaceOnUse" id="a" x2="188" xlink:actuate="onLoad" xlink:show="other" xlink:type="simple" xmlns:xlink="http://www.w3.org/1999/xlink" y1="94" y2="94"><stop offset="0" stop-color="#9c31ff"/><stop offset=".49" stop-color="#576dea"/><stop offset="1" stop-color="#13a9d6"/></linearGradient></defs><g><path d="M156.28,103.38a31.72,31.72,0,0,0,.35-63.44,17.88,17.88,0,0,0-17.4-13.86,18.07,18.07,0,0,0-2.32.15,28,28,0,0,0-31.67-8.45A43.94,43.94,0,0,0,26.13,40.44a31.72,31.72,0,0,0,5.59,62.94h6.83V125.8a17.6,17.6,0,0,1-14.37,17.27,12.46,12.46,0,1,0,.2,8.08A25.63,25.63,0,0,0,46.55,125.8V103.38H73.87V163.7a12.49,12.49,0,1,0,8,0V103.38H109.2v47.14a12.48,12.48,0,1,0,8,0V103.38H142v18a25.08,25.08,0,0,0,21.63,24.81,12.5,12.5,0,1,0,.2-8.07A17.07,17.07,0,0,1,150,121.34v-18ZM12.48,151.86A4.48,4.48,0,1,1,17,147.38,4.49,4.49,0,0,1,12.48,151.86ZM77.87,180a4.48,4.48,0,1,1,4.49-4.48A4.49,4.49,0,0,1,77.87,180Zm35.33-13.18a4.49,4.49,0,1,1,4.48-4.49A4.5,4.5,0,0,1,113.2,166.82Zm62.32-28.91a4.48,4.48,0,1,1-4.48,4.48A4.49,4.49,0,0,1,175.52,137.91ZM8,71.66A23.72,23.72,0,0,1,30.23,48L34,47.71V43.94a35.94,35.94,0,0,1,66.45-19l2,3.19,3.31-1.79a19.67,19.67,0,0,1,9.49-2.4,20,20,0,0,1,16.66,8.94l1.64,2.47,2.84-.85a9.86,9.86,0,0,1,12.71,9.44v4h7.2a23.72,23.72,0,0,1,0,47.44H31.72A23.75,23.75,0,0,1,8,71.66Z" fill="url(#a)"/></g></svg>