<?xml version="1.0" encoding="UTF-8" standalone="no"?><svg xmlns="http://www.w3.org/2000/svg" xmlns:xlink="http://www.w3.org/1999/xlink" fill="#000000" height="412.3" preserveAspectRatio="xMidYMid meet" version="1" viewBox="0.0 0.0 393.1 412.3" width="393.1" zoomAndPan="magnify"><g id="change1_1"><path d="M80.87,257.46h6.9v8.69h-2.64l-6.29,15.18H29.89l-6.29-15.18h-2.64v-8.69h10.48l23.61-12.48L80.87,257.46z M119.38,251.11l-15.49,6.34h-5.42v8.69h1.42l3.37,15.18h32.25l3.37-15.18h1.42v-8.69h-5.42L119.38,251.11z M185.39,46.6H115.5 c-9.95,0-18.01,8.07-18.01,18.01v24.38c0,4.25,1.11,8.24,3.03,11.72l0,0l-3.03,1.72l7.33,3.93c2.56,2.5,5.66,4.44,9.11,5.63 c0.05,1.54,0.39,3,0.93,4.36l0,0l2.02,10.47l3.64-4.07c1.84,1.02,3.94,1.61,6.19,1.61h9.74c0.31,0,0.56-0.25,0.56-0.56 c0-0.22-0.14-0.42-0.34-0.51c-4-1.76-6.93-5.5-7.54-9.99h56.26c9.95,0,18.01-8.07,18.01-18.01V64.61 C203.4,54.66,195.34,46.6,185.39,46.6z M226.76,31.21c-5.52,0-10.07,4.22-10.58,9.61c-0.03,0.33-0.05,0.67-0.05,1.01v225.68 c0,3.57,1.76,6.72,4.45,8.65h6.44v-11.31H341.7v9.18c0,0.73,0.07,1.45,0.22,2.14c0.99,4.84,5.27,8.49,10.41,8.49 c2.93,0,5.59-1.19,7.51-3.11c1.44-1.44,2.48-3.3,2.9-5.38c0.14-0.69,0.22-1.41,0.22-2.14l0-214.83l14.05-11.55 c0-5.87-5.61-7.74-3.43-16.44H226.76z" fill="#f2ede2"/></g><g id="change2_1"><path d="M265.73,180.47h44.3v-12.22h-44.3V180.47z M266.73,169.25h42.3v10.22h-42.3V169.25z M323.21,134.87H275.8v12.22 h47.41V134.87z M322.21,146.1H276.8v-10.22h45.41V146.1z M308.84,83.06h-30.28V70.84h60.71v12.22h-8.81l-41.46,13.65l-1.25-4.84 l42.86-12.81l2.96,1.14l-1.5,1.85h6.21V71.84h-58.71v10.22h29.59L308.84,83.06z M354.29,219.14c12.07,12.07,18.11,27.9,18.11,43.72 l-82.74,6.57l59.75-45.41L354.29,219.14z M280.17,308.74l-2.25-24.09c-16.78,10.51-50.44,22.52-84.54,9.77 c-2.54-0.95-10.74,8.89-10.74,8.89l2.2,71.6l-10.02,20.96l11.17,16.42v0h45.41v0l8.71-12.55l16.67,12.55l0,0h50.1v0l0,0l7.56-25.19 l-17.2-12.19L280.17,308.74z M237.27,382.21l-5.87-7.28v-25.86l10.38,25.86L237.27,382.21z M114.86,116.34 c1.1,2.73,3.11,4.99,5.66,6.41v123.07h-5.66V116.34z M384.21,41.84V59.2h-21.25V41.84c0-5.87,4.76-10.63,10.63-10.63 c2.93,0,5.59,1.19,7.51,3.11C383.02,36.25,384.21,38.9,384.21,41.84z M216.07,85.48c0.19,0,0.38,0,0.57,0.01 c27.99,0,33.46,19.12,33.46,19.12c-0.83,0.21-2.4,0.48-3.16,0.6c-6.25,0.98-5.45,6.95-8.12,4.61c0.1,0.8-1.29,5.24-1.29,6.06 l-2.77,22.43c-0.06,1.2-0.08,2.41-0.08,3.62c0,19.06,10.2,37.56,21.56,51.11c-10.97,5.88-32.49,23.48-45.81,23.48 c-15.56,0-21.81-18.25-33.98-26.1c-6.78-4.38-15.45-11.38-20.57-17.59c20.02-14.11,37.8-34.58,37.8-60.94 C193.68,88.32,214.35,85.48,216.07,85.48z M195.59,285.88H0v-8.9h7.33V110.36c0-1.32,0.04-2.66,0.09-4H6.97l0.04-0.97 c0.05-1.24,0.13-2.53,0.24-3.83l0.07-0.86h0.44c2.36-27.26,14.71-52.52,34.85-71.23C63.08,10.47,89.74,0,117.69,0 c29.48,0,57.19,11.48,78.04,32.32c8.32,8.32,15.17,17.85,20.41,28.18v2.28c-5.29-10.94-12.39-21.02-21.12-29.75 C174.36,12.38,146.9,1,117.69,1C61.32,1,13.66,44.72,8.76,100.7h91.75c1.16,2.09,2.61,4,4.3,5.66H8.42c-0.05,1.34-0.09,2.68-0.09,4 v166.61h187.26V285.88z" fill="#050b0d"/></g><g id="change3_1"><path d="M250.1,126.63v1.38c0,5.7-4.62,10.31-10.31,10.31h-5.03v-34.14c0-0.48-0.03-0.96-0.07-1.44 c-0.03-0.33-0.06-0.66-0.1-0.99c0,0,0,0,0,0c2.56,2.24,6.53,4.17,12.35,3.47c1.93,4.16,3.07,8.77,3.16,13.64h-7.78 C242.32,123.15,245.8,126.63,250.1,126.63z M321.06,79.39l-8.17-0.61c-1.55-0.12-2.97,0.85-3.43,2.33l-1.49,4.73l16.36-4.89 C323.5,80.07,322.36,79.49,321.06,79.39z M265.27,175.94l27.94-6.82c10.71-2.61,19.23-6.3,20.76-17.22l5.68-48.65l1.08-0.99 c1.79-1.63,2.98-3.82,3.39-6.21l0.86-5.07l0.71-5.97c0.02-0.13,0.02-0.27,0.03-0.4l-25.02,8.24c0.46,2.04,1.79,4.74,2.52,5.78 l1.43,2.06l-13.01,43.89l-26.91-1.15c-0.9,4.33-6.93,9.24-6.15,16.17C259.63,169.01,262.46,171.14,265.27,175.94z M122.38,70.85 c0-2.55,1.74-4.26,4.46-4.26c2.39,0,3.74,0.93,5.39,2.52l1.94-2.16c-1.59-1.69-3.44-3.03-6.26-3.33v-4.4h-2.66v4.45 c-3.85,0.58-6.43,3.41-6.43,7.36c0,8.61,12.37,7.06,12.37,14.24c0,2.76-1.67,4.55-4.94,4.55c-2.7,0-4.95-1.32-6.84-2.93l-1.71,2.5 c1.88,1.74,4.71,3.12,7.54,3.39v4.4h2.66v-4.46c4.2-0.6,6.85-3.52,6.85-7.71C134.75,75.51,122.38,77.29,122.38,70.85z M146.6,70.85 c0-2.55,1.74-4.26,4.46-4.26c2.39,0,3.74,0.93,5.39,2.52l1.94-2.16c-1.59-1.69-3.44-3.03-6.26-3.33v-4.4h-2.66v4.45 c-3.85,0.58-6.43,3.41-6.43,7.36c0,8.61,12.37,7.06,12.37,14.24c0,2.76-1.67,4.55-4.94,4.55c-2.7,0-4.95-1.32-6.84-2.93l-1.71,2.5 c1.88,1.74,4.71,3.12,7.54,3.39v4.4h2.66v-4.46c4.2-0.6,6.85-3.52,6.85-7.71C158.97,75.51,146.6,77.29,146.6,70.85z M216.07,201.23 c-14.46,0-28-3.94-39.61-10.8l-5.68,13.18c-3.98,9.24,0.08,19.97,9.18,24.26l15.35,7.23l22.19-24.63l-1.23-9.23 C216.2,201.23,216.14,201.23,216.07,201.23z M339.46,270.08l-12.52-2.71l-16.38-4.53l38.84-38.82 c-21.49-20.89-55.83-20.71-77.09,0.55c-19.87,19.87-21.32,51.18-4.36,72.73c2.99-1.62,5.7-3.21,8.06-4.69l4.16,16.13 c21.38,14.65,50.82,12.49,69.81-6.51L339.46,270.08z M174.69,89.82c-2.7,0-4.95-1.32-6.84-2.93l-1.71,2.5 c1.88,1.74,4.71,3.12,7.54,3.39v4.4h2.66v-4.46c4.2-0.6,6.85-3.52,6.85-7.71c0-9.51-12.37-7.73-12.37-14.17 c0-2.55,1.74-4.26,4.46-4.26c2.39,0,3.74,0.93,5.39,2.52l1.94-2.16c-1.59-1.69-3.44-3.03-6.26-3.33v-4.4h-2.66v4.45 c-3.85,0.58-6.43,3.41-6.43,7.36c0,8.61,12.37,7.06,12.37,14.24C179.63,88.04,177.96,89.82,174.69,89.82z" fill="#ec912d"/></g><g id="change4_1"><path d="M368.93,321.22l-58.37-58.37l82.54,0.01C393.1,283.98,385.04,305.11,368.93,321.22z M258.79,185.02 c3.17-0.75,6.34-1.49,9.51-2.24c1.18-2.65,2.6-6.43,3.51-11.13c0.48-2.48,1.33-6.87,0.86-11.82c-0.79-8.36-4.99-12.81-7.94-16.39 c-12.14-1.15-20.6-0.07-30.04-1.8c0,0.1-0.01,0.19-0.01,0.29c0,19.06,6.84,36.52,18.2,50.07c-10.97,5.88-23.5,9.22-36.81,9.22 c-9.53,0-18.67-1.72-27.11-4.85c0.23,12.47-0.76,27.01-3.59,43.69c-3.83,22.51-11.63,40.27-18.29,52.45 c8.64,7.67,17.06,11.97,23.81,14.49c44.84,16.76,89.97-17.29,95.24-21.39c-8.24-16.51-16.96-38.21-22.43-64.53 C260.99,208.06,259.51,195.94,258.79,185.02z M231.4,374.92v37.38h25.38l-15-37.38H231.4z M306.87,412.31h86.23v-37.38h-95.87 L306.87,412.31z M0,374.92v37.38h185.99l-1.15-37.38H0z" fill="#34787c"/></g><g id="change5_1"><path d="M86.21,170.26c3.07,3.33-0.92,48.15-3.21,67.31c-0.8,6.69-0.52,11.18-2.12,19.89H31.44 c-0.47-5.94-0.62-9.04-0.99-15.18c-1.05-17.51-1.22-25.52-1.13-42.61c0.12-22.33-1.36-39.91,1.83-43.13 c3.19-3.22,5.76,10.97,7.92,25.03c0.91,5.94,3.08,53.5,5.45,65.35c0.1-17.7,4.34-70.18,5.73-78.06c2.63-14.98,3.99-23.48,6.79-21.5 c2.79,1.98,1.3,9.72,4.54,33.51c1.62,11.89,2.41,56.93,3.93,66.04c2.85-12.38,7.18-46.7,8.6-52.76 C77.37,180.09,83.13,166.93,86.21,170.26z M119.38,241.96L119.38,241.96c-8.56,0-15.49,6.94-15.49,15.49v0h30.99v0 C134.88,248.9,127.94,241.96,119.38,241.96z M273.3,83.06h-37.4V70.84h37.4V83.06z M272.3,71.84h-35.4v10.22h35.4V71.84z M328.68,134.87h10.59v12.22h-10.59V134.87z M329.68,146.1h8.59v-10.22h-8.59V146.1z M319.9,103.03l-0.24,0.22l-0.09,0.78h18.71 v10.22h-19.9l-0.12,1h21.02v-12.22H319.9z M315.5,168.25h23.77v12.22H315.5V168.25z M316.5,179.47h21.77v-10.22H316.5V179.47z M300.63,114.26h-41.89v-10.22h44.92l0.3-1h-46.22v12.22h42.6L300.63,114.26z" fill="#50b7b0"/></g></svg>