<?xml version="1.0" encoding="UTF-8"?><svg xmlns="http://www.w3.org/2000/svg" xmlns:xlink="http://www.w3.org/1999/xlink" height="125.6" preserveAspectRatio="xMidYMid meet" version="1.0" viewBox="9.2 9.2 125.7 125.6" width="125.7" zoomAndPan="magnify"><g id="change1_1"><path d="M134.8,76.5v-45c0-1.4,0-2.8,0-4.1c0-0.1,0.1-0.3,0.1-0.4s0-0.3-0.1-0.4c0-3.3,0-6.6,0-9.9c0-4.1-3.2-7.4-7.3-7.5 c0,0-0.1,0-0.1,0H17.2c-0.4,0-0.8,0-1.1,0c-3.8,0.2-6.9,3.4-6.9,7.2c0,1.1,0,2.2,0,3.3v106.1c0,2.6,0.2,5.2,2.3,7.1 s4.3,1.9,6.8,1.9h109.2c0,0,0,0,0,0c3.9-0.1,7.1-3.2,7.2-7.1c0-0.3,0-0.7,0-1V77.3c0-0.1,0.1-0.3,0.1-0.4S134.9,76.6,134.8,76.5z M11.7,28.2h106.7c4.6,0,9.3,0.2,13.9,0v47.4H25.7c-4.7,0-9.3-0.2-14,0V29.8C11.7,29.3,11.7,28.7,11.7,28.2z M11.7,16.5 c0-2.6,2.1-4.8,4.8-4.8h95c5.2,0,10.4,0,15.6,0c2.7-0.2,5,1.9,5.2,4.6c0,0.1,0,0.3,0,0.4c0,1.6,0,3.2,0,4.8v4.1H25.7 c-4.7,0-9.3-0.2-14,0C11.7,22.6,11.7,19.6,11.7,16.5z M132.3,127.6c0,2.6-2.1,4.8-4.7,4.8H19c-1.5,0-3.3,0.2-4.7-0.5 c-2.5-1.3-2.5-3.7-2.5-6.1V78.2h106.7c4.6,0,9.3,0.2,13.9,0v48.2C132.3,126.8,132.3,127.2,132.3,127.6z" fill="inherit"/><path d="M50,107.7V93.3c0-1.4,0-2.8,0-4.1c0.1-2.4-1.8-4.4-4.2-4.5c0,0,0,0,0,0c-3.5-0.1-7,0-10.5,0c-3.8,0-7.7-0.1-11.5,0 c-2.4-0.1-4.4,1.8-4.5,4.2c0,0,0,0,0,0.1c0,1.1,0,2.2,0,3.3v19.4c0,2,0.6,3.8,2.5,4.7c1.2,0.4,2.5,0.5,3.8,0.4h20.1 c0.1,0,0.2,0,0.3-0.1c2.3-0.2,4.1-2.1,4-4.5c0,0,0-0.1,0-0.1C50,110.7,50,109.2,50,107.7z M47.5,112.4c0,1-0.8,1.8-1.8,1.8h-21 c-1.3,0-2.8,0-3-1.8c-0.1-0.8,0-1.7,0-2.5V91.2c-0.1-0.9-0.1-1.9,0.1-2.8c0.5-1.4,2-1.1,3.2-1.1h18.5c1-0.1,2-0.1,3,0.2 c1.2,0.6,1,2,1,3.1v12.4C47.5,106,47.6,109.2,47.5,112.4z" fill="inherit"/><path d="M43.6,119.2H25.7c-0.7,0-1.2,0.6-1.2,1.2s0.6,1.2,1.2,1.2h17.9c0.7,0,1.2-0.6,1.2-1.2S44.3,119.2,43.6,119.2z" fill="inherit"/><path d="M43.6,123.3H25.7c-0.7,0-1.2,0.6-1.2,1.2c0,0.7,0.6,1.2,1.2,1.2h17.9c0.7,0,1.2-0.6,1.2-1.2 C44.8,123.9,44.3,123.3,43.6,123.3z" fill="inherit"/><path d="M87.4,107.7V93.3c0-1.4,0-2.8,0-4.1c0.1-2.4-1.8-4.4-4.2-4.5c0,0,0,0,0,0c-3.5-0.1-7,0-10.5,0c-3.8,0-7.7-0.1-11.5,0 c-2.4-0.1-4.4,1.9-4.4,4.3c0,0,0,0,0,0c0,1.1,0,2.2,0,3.3v19.4c0,2,0.6,3.8,2.5,4.7c1.2,0.4,2.5,0.5,3.8,0.4h20.1 c0.1,0,0.2,0,0.3-0.1c2.3-0.2,4-2.2,3.9-4.5c0,0,0,0,0-0.1C87.4,110.7,87.4,109.2,87.4,107.7z M84.9,112.4c0,1-0.8,1.8-1.8,1.8h-21 c-1.3,0-2.8,0-3-1.8c-0.1-0.8,0-1.7,0-2.5V91.2c-0.1-0.9-0.1-1.9,0.1-2.8c0.5-1.4,2-1.1,3.2-1.1h18.5c1-0.1,2-0.1,3,0.2 c1.2,0.6,1,2,1,3.1v12.4C84.9,106,85.1,109.2,84.9,112.4z" fill="inherit"/><path d="M81,119.2H63.1c-0.7,0-1.2,0.6-1.2,1.2s0.6,1.2,1.2,1.2H81c0.7,0,1.2-0.6,1.2-1.2S81.7,119.2,81,119.2z" fill="inherit"/><path d="M81,123.3H63.1c-0.7,0-1.2,0.6-1.2,1.2c0,0.7,0.6,1.2,1.2,1.2H81c0.7,0,1.2-0.6,1.2-1.2C82.2,123.9,81.7,123.3,81,123.3z" fill="inherit"/><path d="M124.8,107.7V93.3c0-1.4,0-2.8,0-4.1c0.1-2.4-1.8-4.4-4.2-4.5c0,0,0,0,0,0c-3.5-0.1-7,0-10.5,0c-3.8,0-7.7-0.1-11.5,0 c-2.4,0-4.4,1.9-4.4,4.3c0,1.1,0,2.2,0,3.3v19.4c0,2,0.6,3.8,2.5,4.7c1.2,0.4,2.5,0.5,3.8,0.4h20.1c0.1,0,0.2,0,0.4-0.1 c2.2-0.3,3.9-2.2,3.8-4.5c0,0,0,0,0-0.1C124.8,110.7,124.8,109.2,124.8,107.7z M122.3,112.4c0,1-0.8,1.8-1.8,1.8h-21 c-1.3,0-2.8,0-3-1.8c-0.1-0.8,0-1.7,0-2.5V91.2c-0.1-0.9-0.1-1.9,0.1-2.8c0.5-1.4,2-1.1,3.2-1.1h18.4c1-0.1,2-0.1,3,0.2 c1.2,0.6,1,2,1,3.1v12.4C122.3,106,122.5,109.2,122.3,112.4z" fill="inherit"/><path d="M118.4,119.2h-17.9c-0.7,0-1.2,0.6-1.2,1.2s0.6,1.2,1.2,1.2h17.9c0.7,0,1.2-0.6,1.2-1.2S119.1,119.2,118.4,119.2z" fill="inherit"/><path d="M118.4,123.3h-17.9c-0.7,0-1.2,0.6-1.2,1.2c0,0.7,0.6,1.2,1.2,1.2h17.9c0.7,0,1.2-0.6,1.2-1.2 C119.7,123.9,119.1,123.3,118.4,123.3z" fill="inherit"/><path d="M23.9,19.1C23.9,19.1,23.9,19,23.9,19.1c0-0.1,0-0.1,0-0.1C23.8,19,23.8,19.1,23.9,19.1z" fill="inherit"/><path d="M25.4,21.9c0.6-0.8,1-1.7,1-2.7c0-0.2,0-0.4-0.1-0.5c-0.2-1.5-1.3-2.9-2.8-3.4c-1.6-0.6-3.4-0.1-4.5,1.2 c-1.5,1.8-1.3,4.4,0.5,5.9C21.2,23.9,23.9,23.7,25.4,21.9z M20.4,19.1c0-0.1,0-0.1,0-0.2c0-0.1,0.1-0.3,0.1-0.4l0.1-0.2l0.1-0.2 c0.1-0.1,0.2-0.2,0.3-0.3c0,0,0.1,0,0.1,0c0,0,0,0,0,0c0.1,0,0.4-0.2,0.4-0.2c0,0-0.3,0.1-0.1,0l0.2-0.1h0.1h0c0,0,0,0,0.1,0 c0,0,0.1,0,0.1,0c0,0,0,0,0,0h0.4l0.4,0.1c0,0,0,0,0,0l0.2,0.1l0.1,0.1l0,0c0,0,0,0,0,0l0.3,0.3c0,0.1,0.1,0.1,0.1,0.2l0.1,0.2 c0.1,0.2,0.1,0.3,0.1,0.4c0,0,0,0,0,0c0,0,0,0.1,0,0.1c0,0.1,0,0.1,0,0.1c0,0.1,0,0.1,0,0.2c0,0.1,0,0.1,0,0.2 c0,0.1-0.1,0.2-0.1,0.3c0,0,0,0.1,0,0.1c0,0,0,0-0.1,0.1c-0.1,0.2-0.1,0.3-0.2,0.4c0,0-0.1,0.1-0.1,0.1l-0.1,0.1l0,0 c-0.1,0-0.2,0.2-0.3,0.2l-0.1,0.1l-0.4,0.1c-0.1,0-0.1,0-0.1,0c-0.1,0-0.2,0-0.4,0c0,0,0,0,0,0h-0.2l-0.2-0.1c-0.2-0.1,0.1,0,0.1,0 c0,0-0.3-0.1-0.3-0.2L21,20.6c-0.1-0.1-0.2-0.2-0.3-0.3c0,0,0.1,0.2,0,0.1l-0.1-0.2L20.5,20v-0.1c0-0.1,0-0.1,0,0 c0-0.1-0.1-0.2-0.1-0.3c0-0.1,0-0.1,0-0.2C20.4,19.3,20.4,19.2,20.4,19.1z" fill="inherit"/><path d="M20.4,19.1C20.5,18.8,20.4,18.9,20.4,19.1L20.4,19.1z" fill="inherit"/><path d="M35.5,22c0.7-0.8,1-1.7,1-2.7c0,0,0,0,0,0c0,0,0,0,0,0c0,0,0,0,0,0c0,0,0,0,0,0c0-1.8-1.1-3.4-2.8-4 c-1.6-0.6-3.5-0.1-4.6,1.2c-1.5,1.8-1.3,4.4,0.4,6C31.3,24,34,23.8,35.5,22z M30.5,19.1c0-0.1,0-0.1,0-0.2c0-0.1,0.1-0.3,0.1-0.4 l0.1-0.2l0.1-0.2c0,0,0,0,0,0c0,0,0,0,0,0s0.2-0.3,0.3-0.3c0,0,0,0,0.1,0c0,0,0,0,0,0c0.1-0.1,0.3-0.1,0.4-0.2c0,0-0.3,0.1-0.1,0 l0.2-0.1h0.1h0c0,0,0,0,0.1,0c0,0,0.1,0,0.1,0c0,0,0,0,0,0h0.4l0.5,0.1c0.2,0.1,0.2,0.1,0.2,0.1l0.1,0.1l0,0c0,0,0,0,0,0 c0.1,0.1,0.2,0.2,0.3,0.3c0,0.1,0.1,0.1,0.1,0.2c0,0.1,0.1,0.1,0.1,0.2C34,18.8,34,18.9,34,19c0,0,0,0,0,0c0,0,0,0.1,0,0.1 c0,0.1,0,0.1,0,0.1c0,0.1,0,0.1,0,0.2c0,0,0,0.1,0,0.1c0,0-0.1,0.3-0.1,0.4c0,0,0,0.1,0,0.1c0,0,0,0-0.1,0.1 c-0.1,0.1-0.2,0.3-0.2,0.4c0,0-0.1,0.1-0.1,0.1c0,0-0.1,0.1-0.1,0.1l0,0c-0.1,0-0.2,0.2-0.3,0.2L33,20.8l-0.4,0.1c-0.2,0,0,0,0,0 s-0.2,0-0.2,0c-0.1,0-0.2,0-0.4,0c0,0,0,0-0.1,0h-0.2l-0.2-0.1c-0.2-0.1,0.1,0,0.1,0c-0.1-0.1-0.2-0.1-0.3-0.2l-0.2-0.1 c-0.1-0.1-0.2-0.2-0.3-0.3c0,0,0,0.1,0,0l0,0c0,0,0,0,0,0c0,0,0,0,0,0l-0.1-0.1c0,0-0.1-0.1-0.1-0.1v-0.1c0-0.1,0-0.1,0,0.1 c0,0-0.1-0.3-0.1-0.4v-0.2C30.5,19.3,30.5,19.2,30.5,19.1z" fill="inherit"/><path d="M34,19.1C34,19.1,34,19,34,19.1c0-0.1,0-0.1,0-0.1C34,19,34,19.1,34,19.1z" fill="inherit"/><path d="M30.8,20.2L30.8,20.2C30.8,20.3,30.8,20.3,30.8,20.2C30.8,20.3,30.8,20.3,30.8,20.2z" fill="inherit"/><path d="M30.5,19.1C30.6,18.8,30.5,19,30.5,19.1L30.5,19.1z" fill="inherit"/><path d="M43.3,23.4c2-0.4,3.3-2.1,3.4-4.1c0-0.1,0-0.2-0.1-0.3c-0.1-1.7-1.2-3.1-2.8-3.7c-2.2-0.7-4.6,0.5-5.4,2.7 c-0.4,1.2-0.3,2.4,0.4,3.5C39.8,23,41.6,23.8,43.3,23.4z M40.7,19.1c0-0.1,0-0.1,0-0.2c0-0.1,0.1-0.3,0.1-0.4l0.1-0.2l0.1-0.2 c0,0,0,0,0,0c0,0,0,0,0,0s0.2-0.3,0.3-0.3c0,0,0.1-0.1,0.1-0.1c0.1-0.1,0.3-0.1,0.4-0.2c0,0-0.3,0.1-0.1,0l0.2-0.1h0.1h0 c0,0,0,0,0.1,0c0,0,0.1,0,0.1,0c0,0,0,0,0,0h0.4l0.5,0.1c0.2,0.1,0.2,0.1,0.2,0.1c0,0,0.1,0,0.1,0.1l0.1,0l0.3,0.3 c0,0.1,0.1,0.1,0.1,0.2l0.1,0.2c0.1,0.2,0.1,0.3,0.1,0.4c0,0,0,0,0,0c0.1-0.1,0,0.3,0,0.3c0,0,0,0.1,0,0.1c0,0.1-0.1,0.2-0.1,0.3 c0,0,0,0.1,0,0.1c0,0,0,0-0.1,0.1l-0.2,0.4c0,0-0.1,0.1-0.1,0.1l-0.1,0.1v0c-0.1,0.1-0.2,0.2-0.3,0.2l-0.1,0.1l-0.4,0.1 c-0.1,0-0.1,0-0.2,0c-0.1,0-0.3,0-0.4,0H42l-0.2-0.1c-0.2-0.1,0.1,0,0.1,0s-0.3-0.1-0.3-0.2c-0.1,0-0.1-0.1-0.2-0.1 c-0.1-0.1-0.2-0.2-0.3-0.3c0,0,0,0.1,0,0l0,0c0,0,0,0,0,0c0,0,0,0,0,0l-0.1-0.2c0,0,0-0.1-0.1-0.1v-0.1c0-0.1,0-0.1,0,0 c0-0.1-0.1-0.2-0.1-0.3v-0.2C40.7,19.3,40.7,19.2,40.7,19.1z" fill="inherit"/><path d="M44.2,19C44.2,19,44.2,19,44.2,19C44.1,19.1,44.2,19.2,44.2,19z" fill="inherit"/><path d="M41,20.3L41,20.3C41,20.3,41.1,20.3,41,20.3C41.1,20.3,41,20.3,41,20.3z" fill="inherit"/><path d="M40.7,19.1C40.8,18.8,40.7,19,40.7,19.1L40.7,19.1z" fill="inherit"/><path d="M67.3,23.4h27.6c8.9,0,17.7,0.2,26.6,0h0.5c0,0,0,0,0,0c2.1,0,3.9-1.6,4.2-3.7c0.2-1.9-0.9-3.8-2.7-4.5 c-1-0.3-1.9-0.4-2.9-0.3H75c-2.8,0-5.6-0.1-8.3,0c-2.4,0-4.3,1.9-4.3,4.2c0,0.7,0.2,1.4,0.5,2.1C63.9,23,65.5,23.4,67.3,23.4z M67.5,17.5h48.3c2,0,4-0.2,6,0c1,0.1,1.7,0.9,1.6,1.9c-0.1,0.9-0.7,1.5-1.6,1.6H67.5c-1.2,0-2.7-0.1-2.7-1.7S66.4,17.5,67.5,17.5z" fill="inherit"/><path d="M35.5,66L35.5,66l16.7-11.4L68.8,66c1.3,0.9,2.6-1.2,1.3-2.2l-10.6-7.2L75.1,46l16.7,11.4c1.3,0.9,2.6-1.2,1.3-2.2 L75.7,43.4c-0.4-0.2-0.9-0.2-1.3,0L57.3,55.1L52.8,52c-0.4-0.2-0.9-0.2-1.3,0L34.2,63.9C32.9,64.8,34.2,67,35.5,66z" fill="inherit"/><path d="M104.6,45.5c0.7-0.9,1.1-2,1.1-3.1v0l0,0v0v0c0-2-1.3-3.8-3.2-4.5c-1.8-0.7-3.9-0.1-5.2,1.4c-1.7,2-1.5,5,0.5,6.7 S102.9,47.5,104.6,45.5z M98.8,42.1V42c0-0.1,0-0.1,0-0.1c0,0,0-0.1,0-0.1c0.1-0.1,0.1-0.2,0.2-0.3c0,0,0,0,0-0.1 c0-0.1,0.1-0.2,0.1-0.2s0.3-0.4,0.1-0.2c0.1-0.1,0.2-0.2,0.3-0.3c0,0,0,0,0,0c0,0,0.1-0.1,0.1-0.1c0-0.1,0.3-0.3,0.5-0.3l0.3-0.1 h0.2c0,0,0.3-0.1,0.1,0c-0.2,0.1,0.1,0,0.1,0h0.5l0.5,0.2c0.1,0.1,0.2,0.1,0.3,0.1l0.2,0.1l0.1,0.1l0.3,0.3c0,0.1,0.1,0.2,0.2,0.2 l0.1,0.2c0.1,0.2,0.1,0.4,0.2,0.5c0,0.1,0,0.3,0,0.4c0,0.1,0,0.1,0,0.1c0,0,0,0,0,0c0,0.2,0,0.3-0.1,0.5c0,0.1,0,0.2-0.1,0.3 c0,0,0.1-0.2,0,0c-0.1,0.2-0.2,0.3-0.3,0.5l-0.1,0.2c0,0-0.2,0.2-0.2,0.2c-0.1,0.1-0.2,0.1-0.3,0.2l-0.1,0.1c0,0,0,0-0.1,0 c-0.3,0.1-0.3,0.1-0.5,0.1c-0.1,0-0.2,0-0.2,0h-0.5l-0.3-0.1l-0.3-0.1c-0.1,0-0.3-0.1-0.4-0.2l-0.2-0.1l-0.3-0.3c0,0-0.1,0-0.1-0.1 L99,43.5c0,0-0.1-0.1-0.1-0.2c-0.1-0.1-0.1-0.3-0.1-0.4c0-0.1,0-0.1,0-0.2c0,0,0,0,0,0c0,0,0,0,0-0.1 C98.8,42.4,98.8,42.3,98.8,42.1z" fill="inherit"/><path d="M99.2,43.7L99.2,43.7C99.3,43.8,99.3,43.8,99.2,43.7z" fill="inherit"/><path d="M100.2,40.3C100.2,40.3,100,40.4,100.2,40.3L100.2,40.3z" fill="inherit"/></g></svg>